<?xml version="1.0" standalone="no"?>
<!DOCTYPE svg PUBLIC "-//W3C//DTD SVG 20010904//EN"
 "http://www.w3.org/TR/2001/REC-SVG-20010904/DTD/svg10.dtd">
<svg version="1.0" xmlns="http://www.w3.org/2000/svg"
 width="864.000000pt" height="864.000000pt" viewBox="0 0 864.000000 864.000000"
 preserveAspectRatio="xMidYMid meet">
<metadata>
Created by potrace 1.11, written by Peter Selinger 2001-2013
</metadata>
<g transform="translate(0.000000,864.000000) scale(0.100000,-0.100000)"
fill="#000000" stroke="none">
<path d="M1092 5957 l-32 -33 0 -1610 0 -1610 33 -32 33 -32 305 0 305 0 33
34 33 34 -5 934 c-3 515 -10 1002 -16 1087 -6 85 -10 155 -9 157 2 1 294 -502
649 -1119 l646 -1122 453 -3 454 -2 33 32 33 32 0 1611 0 1611 -33 32 -33 32
-310 0 -310 0 -32 -33 -32 -33 0 -704 c0 -387 5 -868 11 -1068 6 -200 9 -366
6 -368 -2 -2 -292 492 -644 1098 l-641 1103 -449 3 -449 2 -32 -33z"/>
<path d="M4823 5958 l-33 -34 0 -1610 0 -1610 34 -33 34 -33 574 5 c603 6 702
12 915 58 573 124 980 473 1141 979 69 216 93 388 94 660 0 216 -16 368 -58
528 -147 566 -566 952 -1164 1071 -204 40 -255 43 -885 48 l-620 5 -32 -34z
m1283 -683 c182 -32 296 -88 406 -198 167 -167 256 -507 228 -869 -24 -313
-92 -491 -244 -644 -96 -96 -194 -150 -351 -190 -89 -24 -124 -27 -322 -31
l-223 -5 0 976 0 976 209 0 c143 0 236 -5 297 -15z"/>
</g>
</svg>
